REM Ripping Tool: trurip

FILE "Jantei Monogatari 2 - Uchuu Tantei Divan Shutsudou-hen (1991)(Atlus)(JP).img" BINARY
  TRACK 01 AUDIO
    INDEX 01 00:00:00
  TRACK 02 MODE1/2352
    INDEX 00 00:44:51
    INDEX 01 00:47:51
  TRACK 03 AUDIO
    INDEX 00 09:35:27
    INDEX 01 09:37:27
  TRACK 04 AUDIO
    INDEX 01 11:24:20
  TRACK 05 MODE1/2352
    INDEX 00 13:37:56
    INDEX 01 13:40:56

REM DISC HASHES
REM CRC32 : 614a2bbb
REM MD5   : 5a7f737d9f8e0f154823e85a94ad58ca
REM SHA1  : 9f0962d1ec2f694bca4401162111bb270702bbd8

REM Gap Append Method: Prev [crc32]
REM Trk 01: 4c53f92b
REM Trk 02: 99fd962d
REM Trk 03: c4caf60c
REM Trk 04: 8deebebf
REM Trk 05: ec756be1

REM Gap Append Method: Prev [md5]
REM Trk 01: 8d7ec5ebfafde98da8ba26f5371ff557
REM Trk 02: 6160cc4b0435c3ab04777427985c4ebb
REM Trk 03: 86a0f03635a5041788120d3711b18dbb
REM Trk 04: 76ff488928f9046543da9fd0d48ee69e
REM Trk 05: a8a7d832e834582708fb487028f2c126

REM Gap Append Method: Prev [sha1]
REM Trk 01: 74ab8a879f900097f29afc97d6973f450f1e2541
REM Trk 02: e7fd126be1e3817b401280f6fa0cf1d4578c6dff
REM Trk 03: 3fcbd8ff7e82eeb177accee583ae92c4b77c56e5
REM Trk 04: 1673b0f2bff8193476772efdd65a83a145d59347
REM Trk 05: de12ae9adb101e4bfeea4ac467baec63d0f91004

REM Gap Append Method: None [crc32]
REM Trk 01: 2cab2362
REM Trk 02: 63795f45
REM Trk 03: c4caf60c
REM Trk 04: da42d40b
REM Trk 05: ec756be1
REM Gap 02: 4dcee60a
REM Gap 03: 7abe247f
REM Gap 05: b956bab1

REM Gap Append Method: None [md5]
REM Trk 01: bf1cd486793a0db7e16a98861e3d1290
REM Trk 02: e84581b8992b1ff21876e8009ebb1cbf
REM Trk 03: 86a0f03635a5041788120d3711b18dbb
REM Trk 04: 1387e669d05dfe8c5dfbe210da4c457f
REM Trk 05: a8a7d832e834582708fb487028f2c126
REM Gap 02: 6a9ee9c3d8835b96aa8f9b6a6fd73f2a
REM Gap 03: 9df204fbc98bb8965081cb30a89715fc
REM Gap 05: 618bfd5f4f6b788ef7b74f26f191a5c7

REM Gap Append Method: None [sha1]
REM Trk 01: c52a41b86a991ff9f4145531f6b174af074d856e
REM Trk 02: 752cf8629ec7c9d3040314d2dfbff6c3237d2016
REM Trk 03: 3fcbd8ff7e82eeb177accee583ae92c4b77c56e5
REM Trk 04: 7caaf93d16d507d8eca511e6eb334319cc9f43bf
REM Trk 05: de12ae9adb101e4bfeea4ac467baec63d0f91004
REM Gap 02: ba90885a7076b5b6b026fdd787835147d9cfb390
REM Gap 03: cbe29e0bd725ef1194f8c47619dd42078e841de2
REM Gap 05: 6424249c264350772e85612a05ec4babeb758ca5

REM Gap Append Method: Next [crc32]
REM Trk 01: 2cab2362
REM Trk 02: 2894d5cd
REM Trk 03: 3dc86b90
REM Trk 04: da42d40b
REM Trk 05: b1d22904

REM Gap Append Method: Next [md5]
REM Trk 01: bf1cd486793a0db7e16a98861e3d1290
REM Trk 02: a496f42a250029ff55838443811c60c9
REM Trk 03: b2c366b5290e58428248bddfb516e070
REM Trk 04: 1387e669d05dfe8c5dfbe210da4c457f
REM Trk 05: 476de5acf38af94af8d58efadb1b225a

REM Gap Append Method: Next [sha1]
REM Trk 01: c52a41b86a991ff9f4145531f6b174af074d856e
REM Trk 02: 4ce977c8a3a417047f24c5e25ad95c505fb0c13a
REM Trk 03: 581d22b4027cc1ec924da0237244506231813792
REM Trk 04: 7caaf93d16d507d8eca511e6eb334319cc9f43bf
REM Trk 05: 445713ccd8fd2f7f549686dfc1911cd51a8b3769

